<svg xmlns="http://www.w3.org/2000/svg" viewBox="0 0 4096 2304"><g stroke="#27B" stroke-width="8" fill="none"><path d="M2046.288 955.122c-209.74 0-379.77-170.03-379.77-379.77s170.03-379.77 379.77-379.77 379.77 170.03 379.77 379.77-170.03 379.77-379.77 379.77zM2240.02 300.118c49.578 49.578 80.244 118.07 80.244 193.732 0 75.653-30.666 144.146-80.244 193.732m-387.448 0c-49.593-49.593-80.253-118.085-80.253-193.748 0-75.653 30.666-144.146 80.244-193.732M1770.823 494.494h549.294"/><rect ry="16" height="176" width="325" y="1160" x="8"/><rect ry="16" height="176" width="325" y="1160" x="349"/><rect ry="16" height="176" width="325" y="1160" x="690"/><rect ry="16" height="176" width="325" y="1160" x="1032"/><rect ry="16" height="176" width="325" y="1160" x="1373"/><rect ry="16" height="176" width="325" y="1160" x="1714"/><rect ry="16" height="176" width="325" y="1160" x="2056"/><rect ry="16" height="176" width="325" y="1160" x="2397"/><rect ry="16" height="176" width="325" y="1160" x="2738"/><rect ry="16" height="176" width="325" y="1160" x="3080"/><rect ry="16" height="176" width="325" y="1160" x="3421"/><rect ry="16" height="176" width="325" y="1160" x="3762"/><rect ry="16" height="176" width="666" y="1352" x="8"/><rect ry="16" height="176" width="325" y="1352" x="690"/><rect ry="16" height="176" width="1008" y="1352" x="1032"/><rect ry="16" height="176" width="666" y="1352" x="2056"/><rect ry="16" height="176" width="666" y="1544" x="2397"/><rect ry="16" height="176" width="1349.3" y="1544" x="1032"/><rect ry="16" height="176" width="325" y="1544" x="3080"/><rect ry="16" height="176" width="325" y="1544" x="3421"/><rect ry="16" height="176" width="325" y="1544" x="3762"/><rect ry="16" height="176" width="1008" y="1544" x="8"/><rect ry="16" height="176" width="666" y="1736" x="690"/><rect ry="16" height="176" width="2032" y="1736" x="2056"/><rect ry="16" height="176" width="666" y="1736" x="8"/><rect ry="16" height="176" width="666" y="1736" x="1373"/><rect ry="16" height="176" width="3056" y="1928" x="8"/><rect ry="16" height="176" width="1008" y="1928" x="3080"/><rect ry="16" height="176" width="2714" y="2120" x="690"/><rect ry="16" height="176" width="666" y="2120" x="8"/><rect ry="16" height="176" width="666" y="2120" x="3421"/><rect ry="16" height="176" width="325" y="1352" x="2738"/><rect ry="16" height="176" width="325" y="1352" x="3762"/><rect ry="16" height="176" width="666" y="1352" x="3080"/></g></svg>