<!-- Created with Inkscape (http://www.inkscape.org/) --><svg xmlns:inkscape="http://www.inkscape.org/namespaces/inkscape" xmlns:rdf="http://www.w3.org/1999/02/22-rdf-syntax-ns#" xmlns="http://www.w3.org/2000/svg" sodipodi:docname="Hero image.svg" inkscape:export-filename="C:\Users\Kyli\Documents\GitHub\Husk\Branding\Hero image.png" inkscape:export-xdpi="90" version="1.1" inkscape:export-ydpi="90" xmlns:cc="http://creativecommons.org/ns#" xmlns:dc="http://purl.org/dc/elements/1.1/" inkscape:version="0.48.4 r9939" viewBox="0 0 4096 2304" xmlns:sodipodi="http://sodipodi.sourceforge.net/DTD/sodipodi-0.dtd"><metadata><rdf:RDF><cc:Work rdf:about=""><dc:format>image/svg+xml</dc:format><dc:type rdf:resource="http://purl.org/dc/dcmitype/StillImage"/><dc:title/></cc:Work></rdf:RDF></metadata><sodipodi:namedview fit-margin-left="-2.7755576e-017" inkscape:zoom="0.30859375" borderopacity="1" inkscape:current-layer="svg3767" inkscape:cx="1347.2803" inkscape:cy="1500.0088" inkscape:window-maximized="1" showgrid="true" inkscape:snap-global="false" showguides="true" bordercolor="#666666" inkscape:window-x="-8" guidetolerance="10" objecttolerance="10" inkscape:window-y="-8" fit-margin-bottom="256" inkscape:window-width="1920" inkscape:pageopacity="0" inkscape:pageshadow="2" pagecolor="#ffffff" gridtolerance="10" inkscape:snap-from-guide="true" inkscape:window-height="1017"><inkscape:grid opacity="0.1254902" empopacity="0.25098039" dotted="false" spacingx="341px" color="#000000" enabled="true" spacingy="192px" visible="true" snapvisiblegridlinesonly="true" units="px" empcolor="#0000ff" type="xygrid" empspacing="4"/><inkscape:grid opacity="0.1254902" empopacity="0.25098039" spacingx="682px" color="#ff0000" enabled="true" spacingy="384px" visible="true" snapvisiblegridlinesonly="true" empcolor="#ff0000" type="xygrid" empspacing="3"/><sodipodi:guide position="0,0" orientation="0,4096"/><sodipodi:guide position="4096,0" orientation="-2304,0"/><sodipodi:guide position="4096,2304" orientation="0,-4096"/><sodipodi:guide position="0,2304" orientation="2304,0"/></sodipodi:namedview><g transform="matrix(1.6334906,0,0,1.6334906,1627.2975,180.86333)" stroke="#27B" stroke-miterlimit="4" stroke-dasharray="none" stroke-width="4.89748763" fill="none"><path d="M256.5,473.99c-128.4,0-232.49-104.09-232.49-232.49s104.09-232.49,232.49-232.49,232.49,104.09,232.49,232.49-104.09,232.49-232.49,232.49z" inkscape:connector-curvature="0"/><path d="m375.1,73.006c30.351,30.351,49.124,72.281,49.124,118.6,0,46.314-18.773,88.244-49.124,118.6m-237.19,0c-30.36-30.36-49.13-72.29-49.13-118.61,0-46.314,18.773-88.244,49.124-118.6" sodipodi:nodetypes="csccsc" inkscape:connector-curvature="0"/><path stroke-linejoin="miter" d="m87.864,192,336.27,0" inkscape:connector-curvature="0" stroke-linecap="butt"/></g><g inkscape:groupmode="layer" stroke="#27B" stroke-miterlimit="4" stroke-dasharray="none" stroke-width="8" inkscape:label="Squares" fill="none"><rect ry="16" height="176" width="325" y="1160" x="8"/><rect ry="16" height="176" width="325" y="1160" x="349"/><rect ry="16" height="176" width="325" y="1160" x="690"/><rect ry="16" height="176" width="325" y="1160" x="1032"/><rect ry="16" height="176" width="325" y="1160" x="1373"/><rect ry="16" height="176" width="325" y="1160" x="1714"/><rect ry="16" height="176" width="325" y="1160" x="2056"/><rect ry="16" height="176" width="325" y="1160" x="2397"/><rect ry="16" height="176" width="325" y="1160" x="2738"/><rect ry="16" height="176" width="325" y="1160" x="3080"/><rect ry="16" height="176" width="325" y="1160" x="3421"/><rect ry="16" height="176" width="325" y="1160" x="3762"/><rect ry="16" height="176" width="666" y="1352" x="8"/><rect ry="16" height="176" width="325" y="1352" x="690"/><rect ry="16" height="176" width="1008" y="1352" x="1032"/><rect ry="16" height="176" width="666" y="1352" x="2056"/><rect ry="16" height="176" width="666" y="1544" x="2397"/><rect ry="16" height="176" width="1349.3" y="1544" x="1032"/><rect ry="16" height="176" width="325" y="1544" x="3080"/><rect ry="16" height="176" width="325" y="1544" x="3421"/><rect ry="16" height="176" width="325" y="1544" x="3762"/><rect ry="16" height="176" width="1008" y="1544" x="8"/><rect ry="16" height="176" width="666" y="1736" x="690"/><rect ry="16" height="176" width="2032" y="1736" x="2056"/><rect ry="16" height="176" width="666" y="1736" x="8"/><rect ry="16" height="176" width="666" y="1736" x="1373"/><rect ry="16" height="176" width="3056" y="1928" x="8"/><rect ry="16" height="176" width="1008" y="1928" x="3080"/><rect ry="16" height="176" width="2714" y="2120" x="690"/><rect ry="16" height="176" width="666" y="2120" x="8"/><rect ry="16" height="176" width="666" y="2120" x="3421"/><rect ry="16" height="176" width="325" y="1352" x="2738"/><rect ry="16" height="176" width="325" y="1352" x="3762"/><rect ry="16" height="176" width="666" y="1352" x="3080"/></g></svg> 