<?xml version="1.0" encoding="UTF-8" standalone="no"?>
<!--Generated by Ulead PhotoImpact-->

<svg
   xmlns:dc="http://purl.org/dc/elements/1.1/"
   xmlns:cc="http://creativecommons.org/ns#"
   xmlns:rdf="http://www.w3.org/1999/02/22-rdf-syntax-ns#"
   xmlns:svg="http://www.w3.org/2000/svg"
   xmlns="http://www.w3.org/2000/svg"
   xmlns:sodipodi="http://sodipodi.sourceforge.net/DTD/sodipodi-0.dtd"
   xmlns:inkscape="http://www.inkscape.org/namespaces/inkscape"
   width="16"
   height="16"
   id="svg2"
   version="1.1"
   inkscape:version="0.48.4 r9939"
   sodipodi:docname="Husk_16.svg"
   inkscape:export-filename="U:\Libraries\Images (new sorting)\From me\Branding\Husk\logo_16.png"
   inkscape:export-xdpi="90"
   inkscape:export-ydpi="90">
  <sodipodi:namedview
     pagecolor="#ffffff"
     bordercolor="#666666"
     borderopacity="1"
     objecttolerance="10"
     gridtolerance="10"
     guidetolerance="10"
     inkscape:pageopacity="0"
     inkscape:pageshadow="2"
     inkscape:window-width="1578"
     inkscape:window-height="1017"
     id="namedview9"
     showgrid="false"
     inkscape:zoom="1"
     inkscape:cx="418.83444"
     inkscape:cy="40.411323"
     inkscape:window-x="-8"
     inkscape:window-y="-8"
     inkscape:window-maximized="1"
     inkscape:current-layer="svg2" />
  <metadata
     id="metadata13">
    <rdf:RDF>
      <cc:Work
         rdf:about="">
        <dc:format>image/svg+xml</dc:format>
        <dc:type
           rdf:resource="http://purl.org/dc/dcmitype/StillImage" />
        <dc:title></dc:title>
      </cc:Work>
    </rdf:RDF>
  </metadata>
  <defs
     id="defs11" />
  <g
     style="stroke-width:32;stroke-miterlimit:4;stroke-dasharray:none"
     transform="matrix(0.025,0,0,0.025,1.5875,1.9625)"
     id="g3762">
    <g
       transform="matrix(1.000000,0.000000,0.000000,1.000000,0.000000,50.000000)"
       id="g3754">
      <path
         transform="matrix(1.000000,0.000000,0.000000,1.000000,0.000000,0.000000)"
         style="fill:none;stroke:#2277bb;stroke-miterlimit:4;stroke-opacity:1;stroke-dasharray:none"
         id="path2990"
         d="M374.940205595 73.0C405.251805519 103.326902725 424.0 145.223040064 424.0 191.499994504C424.0 237.776948945 405.251805519 279.673096276 374.940205595 310.0M138.059801396 310.0C107.748201472 279.673096276 89.0 237.776948945 89.0 191.499994504C89.0 145.223040064 107.748201472 103.326902725 138.059801396 73.0"
         inkscape:connector-curvature="0"
         sodipodi:nodetypes="csccsc" />
      <path
         transform="matrix(1.000000,0.000000,0.000000,1.000000,0.000000,0.000000)"
         style="fill:none;stroke:#2277bb;stroke-linecap:butt;stroke-linejoin:miter;stroke-miterlimit:4;stroke-opacity:1;stroke-dasharray:none"
         d="M88.0 192.0L424.271183 192.0"
         id="path3760"
         inkscape:connector-curvature="0" />
    </g>
    <path
       transform="matrix(1.000000,0.000000,0.000000,1.000000,0.000000,0.000000)"
       style="fill:#ffffff;fill-opacity:0.25098039;stroke:#2277bb;stroke-miterlimit:4;stroke-opacity:1;stroke-dasharray:none"
       id="PATH1"
       d="M257.0 474.0C128.094477182 474.0 24.0 369.905522818 24.0 241.5C24.0 113.094477182 128.094477182 9.0 256.5 9.0C384.905522818 9.0 489.0 113.094477182 489.0 241.5C489.5 369.905522818 385.405522818 474.0 257.0 474.0Z"
       inkscape:connector-curvature="0" />
  </g>
</svg>
